<svg width="32" height="32" viewBox="0 0 32 32" fill="none" xmlns="http://www.w3.org/2000/svg">
  <rect width="32" height="32" rx="6" fill="#1DA1F2"/>
  <path d="M25.312 10.562c-.863.383-1.79.641-2.765.758 1.007-.6 1.777-1.55 2.14-2.683-.937.555-1.975.959-3.08 1.175-.884-.942-2.144-1.531-3.538-1.531-2.676 0-4.847 2.17-4.847 4.847 0 .38.043.75.126 1.106-4.026-.2-7.597-2.13-9.99-5.062-.417.716-.656 1.548-.656 2.436 0 1.681.855 3.165 2.154 4.035-.794-.025-1.541-.243-2.195-.606v.061c0 2.347 1.669 4.307 3.884 4.752-.406.111-.834.17-1.275.17-.312 0-.615-.03-.911-.086.616 1.924 2.405 3.324 4.526 3.363-1.658 1.299-3.748 2.074-6.017 2.074-.391 0-.778-.023-1.158-.067 2.146 1.376 4.696 2.18 7.434 2.18 8.921 0 13.798-7.387 13.798-13.798 0-.21-.005-.42-.014-.628.947-.684 1.769-1.538 2.418-2.511z" fill="white"/>
</svg>